<svg width="18" height="19" viewBox="0 0 18 19" fill="none" xmlns="http://www.w3.org/2000/svg">
<path fill-rule="evenodd" clip-rule="evenodd" d="M5.66699 0.833313C6.12723 0.833313 6.50033 1.20641 6.50033 1.66665V2.49998H11.5003V1.66665C11.5003 1.20641 11.8734 0.833313 12.3337 0.833313C12.7939 0.833313 13.167 1.20641 13.167 1.66665V2.49998H14.0003C15.8413 2.49998 17.3337 3.99236 17.3337 5.83331V15C17.3337 16.8409 15.8413 18.3333 14.0003 18.3333H4.00033C2.15938 18.3333 0.666992 16.8409 0.666992 15V5.83331C0.666992 3.99236 2.15938 2.49998 4.00033 2.49998H4.83366V1.66665C4.83366 1.20641 5.20676 0.833313 5.66699 0.833313ZM11.5003 4.16665C11.5003 4.62688 11.8734 4.99998 12.3337 4.99998C12.7939 4.99998 13.167 4.62688 13.167 4.16665H14.0003C14.9208 4.16665 15.667 4.91284 15.667 5.83331V6.24998H2.33366V5.83331C2.33366 4.91284 3.07985 4.16665 4.00033 4.16665H4.83366C4.83366 4.62688 5.20676 4.99998 5.66699 4.99998C6.12723 4.99998 6.50033 4.62688 6.50033 4.16665H11.5003ZM15.667 7.91665H2.33366V15C2.33366 15.9205 3.07985 16.6666 4.00033 16.6666H14.0003C14.9208 16.6666 15.667 15.9205 15.667 15V7.91665Z" fill="#2D3F50"/>
</svg>
