<svg width="18" height="19" viewBox="0 0 18 19" fill="none" xmlns="http://www.w3.org/2000/svg">
<path d="M12.9229 10.4226L9.58958 13.7559C9.26414 14.0814 8.73651 14.0814 8.41107 13.7559L5.07774 10.4226C4.7523 10.0972 4.7523 9.56953 5.07774 9.2441C5.40317 8.91866 5.93081 8.91866 6.25625 9.2441L8.16699 11.1548V1.50002C8.16699 1.03978 8.54009 0.666687 9.00033 0.666687C9.46056 0.666687 9.83366 1.03978 9.83366 1.50002V11.1548L11.7444 9.2441C12.0698 8.91866 12.5975 8.91866 12.9229 9.2441C13.2484 9.56953 13.2484 10.0972 12.9229 10.4226Z" fill="white"/>
<path d="M2.33366 13.5834C2.33366 13.1231 1.96056 12.75 1.50033 12.75C1.04009 12.75 0.666992 13.1231 0.666992 13.5834V14.8334C0.666992 16.6743 2.15938 18.1667 4.00033 18.1667H14.0003C15.8413 18.1667 17.3337 16.6743 17.3337 14.8334V13.5834C17.3337 13.1231 16.9606 12.75 16.5003 12.75C16.0401 12.75 15.667 13.1231 15.667 13.5834V14.8334C15.667 15.7538 14.9208 16.5 14.0003 16.5H4.00033C3.07985 16.5 2.33366 15.7538 2.33366 14.8334V13.5834Z" fill="white"/>
</svg>
