<svg width="19" height="18" viewBox="0 0 19 18" fill="none" xmlns="http://www.w3.org/2000/svg">
<path d="M5.25033 2.33334C5.71056 2.33334 6.08366 1.96024 6.08366 1.50001C6.08366 1.03977 5.71056 0.666672 5.25033 0.666672H4.00033C2.15938 0.666672 0.666992 2.15906 0.666992 4.00001V14C0.666992 15.841 2.15938 17.3333 4.00033 17.3333H5.25033C5.71056 17.3333 6.08366 16.9602 6.08366 16.5C6.08366 16.0398 5.71056 15.6667 5.25033 15.6667H4.00033C3.07985 15.6667 2.33366 14.9205 2.33366 14L2.33366 4.00001C2.33366 3.07953 3.07985 2.33334 4.00033 2.33334H5.25033Z" fill="white"/>
<path d="M17.9229 9.58926C18.2484 9.26382 18.2484 8.73619 17.9229 8.41075L14.5896 5.07742C14.2641 4.75198 13.7365 4.75198 13.4111 5.07742C13.0856 5.40285 13.0856 5.93049 13.4111 6.25593L15.3218 8.16667L5.66699 8.16667C5.20675 8.16667 4.83366 8.53977 4.83366 9C4.83366 9.46024 5.20675 9.83334 5.66699 9.83334L15.3218 9.83334L13.4111 11.7441C13.0856 12.0695 13.0856 12.5972 13.4111 12.9226C13.7365 13.248 14.2641 13.248 14.5896 12.9226L17.9229 9.58926Z" fill="white"/>
</svg>
