<svg width="33" height="33" viewBox="0 0 33 33" fill="none" xmlns="http://www.w3.org/2000/svg">
<path d="M13.0296 1.73383H3.127C2.03319 1.73383 1.14648 2.62061 1.14648 3.71452V13.618C1.14648 14.7119 2.03319 15.5987 3.127 15.5987H13.0296C14.1234 15.5987 15.0101 14.7119 15.0101 13.618V3.71452C15.0101 2.62061 14.1234 1.73383 13.0296 1.73383Z" fill="#0096FF" stroke="#1E1E1E" stroke-width="0.447531"/>
<path d="M11.8831 0.587097H1.98051C0.886705 0.587097 0 1.47388 0 2.56779V12.4712C0 13.5651 0.886705 14.4519 1.98051 14.4519H11.8831C12.9769 14.4519 13.8636 13.5651 13.8636 12.4712V2.56779C13.8636 1.47388 12.9769 0.587097 11.8831 0.587097Z" fill="white" stroke="#1E1E1E" stroke-width="0.447531"/>
<path d="M5.63528 12.2628H7.2252C7.45674 10.0436 8.87687 8.24624 11.3621 8.2306V6.80845C8.87687 6.77718 7.45674 4.99554 7.2252 2.77631H5.63528C5.82051 4.43292 6.57688 6.0739 8.30574 6.7303V6.76156L2.08496 6.74593V8.29315L8.30574 8.27752V8.30879C6.57688 8.96513 5.82051 10.6062 5.63528 12.2628Z" fill="#0096FF"/>
<path d="M21.3377 5.30951L19.4512 10.8053L26.4772 8.31626L27.985 3.06854L21.3377 5.30951ZM26.2743 8.12528L21.9489 9.65751L22.8933 6.91024L27.0507 5.42306L26.2743 8.12528ZM22.7 6.7175L21.6532 9.76196L19.8505 10.4005L21.5321 5.50228L27.6183 3.45056L27.1357 5.13039L22.7 6.7175Z" fill="#1E1E1E"/>
<path d="M19.8251 4.18429L16.6953 13.2496L18.1155 15.128L29.6218 11.2503L32.0681 2.31981L30.6041 0.382385L19.8251 4.18429ZM18.2048 14.8368L17.033 13.2875L27.9815 9.42316L29.3135 11.0933L18.2048 14.8368ZM27.9215 9.18298L17.0339 13.0252L20.0192 4.37725L30.3739 0.725701L27.9215 9.18298ZM31.797 2.37223L29.4631 10.8882L28.1583 9.25199L30.6074 0.800019L31.797 2.37223Z" fill="#1E1E1E"/>
<path d="M29.3136 11.0933L18.2049 14.8368L17.0332 13.2875L27.9819 9.42346L29.3136 11.0933Z" fill="#0096FF"/>
<path d="M30.6096 0.799744L31.7983 2.37172L29.465 10.8873L28.1602 9.25108L30.6096 0.799744Z" fill="#0096FF"/>
<path d="M20.0195 4.37781L17.0342 13.0258L27.9235 9.18245L30.3756 0.725342L20.0195 4.37781ZM26.4765 8.31626L19.4504 10.8052L21.3369 5.30947L27.9842 3.06851L26.4765 8.31626Z" fill="white"/>
<path d="M27.6174 3.45251L27.1348 5.13235L22.6991 6.71948L21.6523 9.76387L19.8496 10.4024L21.5312 5.50425L27.6174 3.45251Z" fill="#0096FF"/>
<path d="M32.2088 25.3457V32.3824H25.1727C21.2875 32.3824 18.1367 29.2313 18.1367 25.3457C18.1367 21.4602 21.2875 18.3091 25.1727 18.3091C29.058 18.3091 32.2088 21.4602 32.2088 25.3457Z" fill="#0096FF" stroke="#1E1E1E" stroke-width="0.447531" stroke-miterlimit="10"/>
<path d="M30.9588 24.199V31.2357H23.9227C20.0375 31.2357 16.8867 28.0846 16.8867 24.199C16.8867 20.3134 20.0375 17.1624 23.9227 17.1624C27.808 17.1624 30.9588 20.3134 30.9588 24.199Z" fill="white" stroke="#1E1E1E" stroke-width="0.447531" stroke-miterlimit="10"/>
<path d="M30.9062 31.1314L32.2092 32.2781" stroke="#1E1E1E" stroke-width="0.447531"/>
<path d="M28.2062 23.2899L25.1354 23.5554L27.0586 20.9976C26.6663 19.7283 25.4774 20.0018 25.4774 20.0018L24.1124 22.8584L22.7475 20.0018C21.2789 19.8187 21.1653 20.9986 21.1653 20.9986L23.0885 23.5564L20.0186 23.2899C20.0186 23.2899 19.3044 24.0915 20.0186 25.0168L23.0894 24.7191L21.1662 27.2769C21.1662 27.2769 21.3473 28.4306 22.7484 28.2737L24.1134 25.4162L25.4783 28.2737C25.4783 28.2737 26.622 28.6328 27.0605 27.2769L25.1364 24.7191L28.2072 24.9837C29.0955 24.182 28.2062 23.2899 28.2062 23.2899Z" fill="#0096FF"/>
<path d="M8.91687 18.1458C7.39493 18.9101 5.70865 20.2367 4.16935 21.8826C2.63007 23.5283 1.41717 25.2988 0.755711 26.8678C0.0737112 28.4863 0.0581913 29.7152 0.710061 30.3275L2.48079 31.9843C3.13494 32.5969 4.35971 32.5001 5.92959 31.7103C7.45107 30.9465 9.13736 29.6194 10.6771 27.9736C12.2168 26.3278 13.4293 24.5578 14.0907 22.9883C14.4395 22.161 14.6139 21.4361 14.6139 20.8426C14.6139 20.2751 14.4541 19.8282 14.1341 19.5291L12.3634 17.8719C11.7111 17.2611 10.4863 17.3578 8.91687 18.1458ZM13.9178 19.7637C14.4591 20.2705 14.4157 21.4009 13.7981 22.8655C13.1508 24.4007 11.9603 26.1379 10.4456 27.7568C8.93102 29.3756 7.27669 30.6786 5.78944 31.4264C4.36884 32.1395 3.24359 32.2577 2.70219 31.751L1.58881 30.7087C2.25711 30.7895 3.13586 30.5717 4.16206 30.055C5.684 29.2908 7.36982 27.9636 8.90956 26.3177C10.4493 24.672 11.6618 22.902 12.3233 21.3324C12.6719 20.5057 12.8463 19.7802 12.8463 19.1867C12.8471 19.0304 12.8332 18.8743 12.8048 18.7206L13.9178 19.7637ZM12.147 18.1065C12.6884 18.6133 12.645 19.7437 12.0274 21.2083C11.3801 22.7441 10.1896 24.4807 8.67493 26.0995C7.16029 27.7184 5.50642 29.0214 4.01871 29.7691C2.59811 30.4823 1.47331 30.6005 0.931916 30.0942C0.679932 29.8586 0.554852 29.4884 0.554852 29.0122C0.554852 28.4644 0.721015 27.7759 1.05106 26.9921C1.69836 25.4568 2.8889 23.7196 4.40353 22.1007C5.91818 20.4819 7.5725 19.1789 9.05976 18.4312C10.4813 17.7181 11.6056 17.5998 12.147 18.1065Z" fill="#1E1E1E"/>
<path d="M12.1478 18.1065C12.6892 18.6133 12.6459 19.7437 12.0283 21.2083C11.3809 22.744 10.1904 24.4807 8.67574 26.0995C7.1611 27.7184 5.50723 29.0214 4.01952 29.7691C2.59892 30.4823 1.47412 30.6005 0.932726 30.0942C0.680743 29.8586 0.555664 29.4884 0.555664 29.0122C0.555664 28.4644 0.721827 27.7759 1.05187 26.992C1.69917 25.4568 2.88971 23.7196 4.40434 22.1007C5.91898 20.4819 7.57332 19.1789 9.06056 18.4311C10.4821 17.718 11.6064 17.5998 12.1478 18.1065Z" fill="white"/>
<path d="M12.8045 18.721L13.9188 19.7637C14.4601 20.2704 14.4168 21.4009 13.7992 22.8654C13.1518 24.4007 11.9613 26.1379 10.4467 27.7567C8.93206 29.3756 7.27773 30.6785 5.79048 31.4263C4.36988 32.1395 3.24462 32.2577 2.70322 31.7509L1.58984 30.7087C2.25814 30.7895 3.13689 30.5717 4.16308 30.0549C5.68503 29.2907 7.37085 27.9635 8.91059 26.3177C10.4503 24.6719 11.6628 22.9019 12.3242 21.3324C12.673 20.5056 12.8474 19.7802 12.8474 19.1867C12.8477 19.0304 12.8333 18.8746 12.8045 18.721Z" fill="#0096FF"/>
</svg>
