<svg width="20" height="20" viewBox="0 0 20 20" fill="none" xmlns="http://www.w3.org/2000/svg">
<path d="M15.1955 2.44708C13.7188 1.42925 11.9288 0.833313 9.99967 0.833313C4.93706 0.833313 0.833008 4.93737 0.833008 9.99998C0.833008 15.0626 4.93706 19.1666 9.99967 19.1666C15.0623 19.1666 19.1663 15.0626 19.1663 9.99998C19.1663 8.07082 18.5704 6.28084 17.5526 4.80411L16.3496 6.00708C17.0782 7.16329 17.4997 8.53241 17.4997 9.99998C17.4997 14.1421 14.1418 17.5 9.99967 17.5C5.85754 17.5 2.49967 14.1421 2.49967 9.99998C2.49967 5.85784 5.85754 2.49998 9.99967 2.49998C11.4672 2.49998 12.8364 2.92149 13.9926 3.65006L15.1955 2.44708Z" fill="#F0F2F5"/>
<path d="M16.6663 0.833313C17.1266 0.833313 17.4997 1.20641 17.4997 1.66665V2.49998H18.333C18.7932 2.49998 19.1663 2.87308 19.1663 3.33331C19.1663 3.79355 18.7932 4.16665 18.333 4.16665H17.0115L11.5421 9.63606C11.8581 9.7545 12.083 10.0593 12.083 10.4166C12.083 10.8769 11.7099 11.25 11.2497 11.25H9.58301C9.12277 11.25 8.74967 10.8769 8.74967 10.4166V8.74998C8.74967 8.28974 9.12277 7.91665 9.58301 7.91665C9.94035 7.91665 10.2452 8.14156 10.3636 8.45755L15.833 2.98813V1.66665C15.833 1.20641 16.2061 0.833313 16.6663 0.833313Z" fill="#F0F2F5"/>
<path d="M9.99967 4.16665C11.0043 4.16665 11.9496 4.42059 12.7748 4.86779L11.5223 6.1203C11.0507 5.93504 10.5371 5.83331 9.99967 5.83331C7.69849 5.83331 5.83301 7.69879 5.83301 9.99998C5.83301 12.3012 7.69849 14.1666 9.99967 14.1666C12.3009 14.1666 14.1663 12.3012 14.1663 9.99998C14.1663 9.4626 14.0646 8.94897 13.8794 8.47732L15.1319 7.22482C15.5791 8.0501 15.833 8.99538 15.833 9.99998C15.833 13.2216 13.2213 15.8333 9.99967 15.8333C6.77801 15.8333 4.16634 13.2216 4.16634 9.99998C4.16634 6.77832 6.77801 4.16665 9.99967 4.16665Z" fill="#F0F2F5"/>
</svg>
