<svg width="20" height="15" viewBox="0 0 20 15" fill="none" xmlns="http://www.w3.org/2000/svg">
<path fill-rule="evenodd" clip-rule="evenodd" d="M9.99986 0.166687C8.15891 0.166687 6.66653 1.65907 6.66653 3.50002C6.66653 5.34097 8.15891 6.83335 9.99986 6.83335C11.8408 6.83335 13.3332 5.34097 13.3332 3.50002C13.3332 1.65907 11.8408 0.166687 9.99986 0.166687ZM8.33319 3.50002C8.33319 2.57955 9.07938 1.83335 9.99986 1.83335C10.9203 1.83335 11.6665 2.57955 11.6665 3.50002C11.6665 4.4205 10.9203 5.16669 9.99986 5.16669C9.07938 5.16669 8.33319 4.4205 8.33319 3.50002Z" fill="#F0F2F5"/>
<path fill-rule="evenodd" clip-rule="evenodd" d="M9.99986 14.3334C9.05245 14.3334 7.68642 14.1094 6.64973 13.633C6.14119 13.3993 5.59554 13.0527 5.27369 12.5341C5.10378 12.2603 4.99643 11.9376 4.99994 11.5784C5.00342 11.2227 5.11499 10.8853 5.29768 10.5761C6.13308 9.1623 7.86615 7.66669 9.99986 7.66669C12.1336 7.66669 13.8666 9.1623 14.702 10.5761C14.8847 10.8853 14.9963 11.2227 14.9998 11.5784C15.0033 11.9376 14.8959 12.2603 14.726 12.5341C14.4042 13.0527 13.8585 13.3993 13.35 13.633C12.3133 14.1094 10.9473 14.3334 9.99986 14.3334ZM6.73257 11.424C6.66875 11.532 6.66662 11.5856 6.66653 11.5947C6.66646 11.6007 6.66625 11.6173 6.68979 11.6552C6.75595 11.7618 6.94811 11.9359 7.34568 12.1186C8.12119 12.475 9.24055 12.6667 9.99986 12.6667C10.7592 12.6667 11.8785 12.475 12.654 12.1186C13.0516 11.9359 13.2438 11.7618 13.3099 11.6552C13.3335 11.6173 13.3333 11.6012 13.3332 11.5951C13.3331 11.586 13.331 11.532 13.2671 11.424C12.6195 10.3278 11.3528 9.33335 9.99986 9.33335C8.64693 9.33335 7.38025 10.3278 6.73257 11.424Z" fill="#F0F2F5"/>
<path fill-rule="evenodd" clip-rule="evenodd" d="M2.08319 6.00002C2.08319 4.61931 3.20248 3.50002 4.58319 3.50002C5.9639 3.50002 7.08319 4.61931 7.08319 6.00002C7.08319 7.38073 5.9639 8.50002 4.58319 8.50002C3.20248 8.50002 2.08319 7.38073 2.08319 6.00002ZM4.58319 5.16669C4.12295 5.16669 3.74986 5.53978 3.74986 6.00002C3.74986 6.46026 4.12295 6.83335 4.58319 6.83335C5.04343 6.83335 5.41653 6.46026 5.41653 6.00002C5.41653 5.53978 5.04343 5.16669 4.58319 5.16669Z" fill="#F0F2F5"/>
<path d="M2.41297 12.2038C2.20835 12.6161 1.70828 12.7844 1.29603 12.5798C0.883782 12.3752 0.715463 11.8751 0.920082 11.4629C1.22624 10.846 1.68963 10.2267 2.27257 9.75288C2.85573 9.27883 3.603 8.91669 4.45584 8.91669C4.91607 8.91669 5.28917 9.28978 5.28917 9.75002C5.28917 10.2103 4.91607 10.5834 4.45584 10.5834C4.08835 10.5834 3.70051 10.74 3.32386 11.0462C2.94699 11.3525 2.62589 11.7749 2.41297 12.2038Z" fill="#F0F2F5"/>
<path fill-rule="evenodd" clip-rule="evenodd" d="M13.1749 6.00002C13.1749 4.61931 14.2942 3.50002 15.6749 3.50002C17.0556 3.50002 18.1749 4.61931 18.1749 6.00002C18.1749 7.38073 17.0556 8.50002 15.6749 8.50002C14.2942 8.50002 13.1749 7.38073 13.1749 6.00002ZM15.6749 5.16669C15.2147 5.16669 14.8416 5.53978 14.8416 6.00002C14.8416 6.46026 15.2147 6.83335 15.6749 6.83335C16.1351 6.83335 16.5082 6.46026 16.5082 6.00002C16.5082 5.53978 16.1351 5.16669 15.6749 5.16669Z" fill="#F0F2F5"/>
<path d="M19.0833 11.4629C19.2879 11.8751 19.1196 12.3752 18.7074 12.5798C18.2951 12.7844 17.795 12.6161 17.5904 12.2038C17.3775 11.7749 17.0564 11.3525 16.6795 11.0462C16.3029 10.74 15.915 10.5834 15.5475 10.5834C15.0873 10.5834 14.7142 10.2103 14.7142 9.75002C14.7142 9.28978 15.0873 8.91669 15.5475 8.91669C16.4004 8.91669 17.1477 9.27883 17.7308 9.75288C18.3138 10.2267 18.7772 10.846 19.0833 11.4629Z" fill="#F0F2F5"/>
</svg>
