<svg width="18" height="18" viewBox="0 0 18 18" fill="none" xmlns="http://www.w3.org/2000/svg">
<path d="M3.16699 13.5833C3.16699 13.1231 3.54009 12.75 4.00033 12.75H9.83366C10.2939 12.75 10.667 13.1231 10.667 13.5833C10.667 14.0436 10.2939 14.4167 9.83366 14.4167H4.00033C3.54009 14.4167 3.16699 14.0436 3.16699 13.5833Z" fill="#F0F2F5"/>
<path d="M12.3337 12.75C11.8734 12.75 11.5003 13.1231 11.5003 13.5833C11.5003 14.0436 11.8734 14.4167 12.3337 14.4167H14.0003C14.4606 14.4167 14.8337 14.0436 14.8337 13.5833C14.8337 13.1231 14.4606 12.75 14.0003 12.75H12.3337Z" fill="#F0F2F5"/>
<path fill-rule="evenodd" clip-rule="evenodd" d="M5.66699 0.25C6.12723 0.25 6.50033 0.623096 6.50033 1.08333V1.91667H11.5003V1.08333C11.5003 0.623096 11.8734 0.25 12.3337 0.25C12.7939 0.25 13.167 0.623096 13.167 1.08333V1.91667H14.0003C15.8413 1.91667 17.3337 3.40905 17.3337 5.25V14.4167C17.3337 16.2576 15.8413 17.75 14.0003 17.75H4.00033C2.15938 17.75 0.666992 16.2576 0.666992 14.4167V5.25C0.666992 3.40905 2.15938 1.91667 4.00033 1.91667H4.83366V1.08333C4.83366 0.623096 5.20676 0.25 5.66699 0.25ZM11.5003 3.58333C11.5003 4.04357 11.8734 4.41667 12.3337 4.41667C12.7939 4.41667 13.167 4.04357 13.167 3.58333H14.0003C14.9208 3.58333 15.667 4.32953 15.667 5.25V5.66667H2.33366V5.25C2.33366 4.32953 3.07985 3.58333 4.00033 3.58333H4.83366C4.83366 4.04357 5.20676 4.41667 5.66699 4.41667C6.12723 4.41667 6.50033 4.04357 6.50033 3.58333H11.5003ZM15.667 7.33333H2.33366V14.4167C2.33366 15.3371 3.07985 16.0833 4.00033 16.0833H14.0003C14.9208 16.0833 15.667 15.3371 15.667 14.4167V7.33333Z" fill="#F0F2F5"/>
</svg>
