<svg width="30" height="23" viewBox="0 0 30 23" fill="none" xmlns="http://www.w3.org/2000/svg">
<path fill-rule="evenodd" clip-rule="evenodd" d="M15 0.333313C12.0545 0.333313 9.66664 2.72113 9.66664 5.66665C9.66664 8.61216 12.0545 11 15 11C17.9455 11 20.3333 8.61216 20.3333 5.66665C20.3333 2.72113 17.9455 0.333313 15 0.333313ZM12.3333 5.66665C12.3333 4.19389 13.5272 2.99998 15 2.99998C16.4727 2.99998 17.6666 4.19389 17.6666 5.66665C17.6666 7.13941 16.4727 8.33331 15 8.33331C13.5272 8.33331 12.3333 7.13941 12.3333 5.66665Z" fill="#101928"/>
<path fill-rule="evenodd" clip-rule="evenodd" d="M15 23C13.4841 23 11.2985 22.6417 9.63976 21.8794C8.8261 21.5055 7.95306 20.9509 7.43809 20.1212C7.16624 19.6832 6.99448 19.1668 7.0001 18.5921C7.00567 18.0229 7.18418 17.4831 7.47649 16.9884C8.81312 14.7263 11.586 12.3333 15 12.3333C18.4139 12.3333 21.1868 14.7263 22.5235 16.9884C22.8158 17.4831 22.9943 18.0229 22.9998 18.5921C23.0055 19.1668 22.8337 19.6832 22.5618 20.1212C22.0469 20.9509 21.1738 21.5055 20.3602 21.8794C18.7015 22.6417 16.5158 23 15 23ZM9.77231 18.3449C9.6702 18.5178 9.66678 18.6036 9.66664 18.6182C9.66652 18.6278 9.6662 18.6543 9.70386 18.715C9.80972 18.8855 10.1172 19.1641 10.7533 19.4564C11.9941 20.0266 13.7851 20.3333 15 20.3333C16.2148 20.3333 18.0058 20.0266 19.2467 19.4564C19.8828 19.1641 20.1902 18.8855 20.2961 18.715C20.3337 18.6543 20.3334 18.6285 20.3333 18.6188C20.3332 18.6042 20.3297 18.5178 20.2276 18.3449C19.1913 16.5912 17.1646 15 15 15C12.8353 15 10.8086 16.5912 9.77231 18.3449Z" fill="#101928"/>
<path fill-rule="evenodd" clip-rule="evenodd" d="M2.3333 9.66665C2.3333 7.45751 4.12416 5.66665 6.3333 5.66665C8.54244 5.66665 10.3333 7.45751 10.3333 9.66665C10.3333 11.8758 8.54244 13.6666 6.3333 13.6666C4.12416 13.6666 2.3333 11.8758 2.3333 9.66665ZM6.3333 8.33331C5.59692 8.33331 4.99997 8.93027 4.99997 9.66665C4.99997 10.403 5.59692 11 6.3333 11C7.06968 11 7.66664 10.403 7.66664 9.66665C7.66664 8.93027 7.06968 8.33331 6.3333 8.33331Z" fill="#101928"/>
<path d="M2.86095 19.5928C2.53356 20.2524 1.73345 20.5217 1.07385 20.1943C0.414246 19.8669 0.144937 19.0668 0.472326 18.4072C0.962171 17.4203 1.7036 16.4294 2.6363 15.6712C3.56936 14.9127 4.76499 14.3333 6.12953 14.3333C6.86591 14.3333 7.46287 14.9303 7.46287 15.6666C7.46287 16.403 6.86591 17 6.12953 17C5.54156 17 4.921 17.2506 4.31837 17.7405C3.71538 18.2306 3.20162 18.9064 2.86095 19.5928Z" fill="#101928"/>
<path fill-rule="evenodd" clip-rule="evenodd" d="M20.08 9.66665C20.08 7.45751 21.8709 5.66665 24.08 5.66665C26.2892 5.66665 28.08 7.45751 28.08 9.66665C28.08 11.8758 26.2892 13.6666 24.08 13.6666C21.8709 13.6666 20.08 11.8758 20.08 9.66665ZM24.08 8.33331C23.3437 8.33331 22.7467 8.93027 22.7467 9.66665C22.7467 10.403 23.3437 11 24.08 11C24.8164 11 25.4134 10.403 25.4134 9.66665C25.4134 8.93027 24.8164 8.33331 24.08 8.33331Z" fill="#101928"/>
<path d="M29.5335 18.4072C29.8609 19.0668 29.5916 19.8669 28.932 20.1943C28.2724 20.5217 27.4722 20.2524 27.1449 19.5928C26.8042 18.9064 26.2904 18.2306 25.6874 17.7405C25.0848 17.2506 24.4642 17 23.8763 17C23.1399 17 22.5429 16.403 22.5429 15.6666C22.5429 14.9303 23.1399 14.3333 23.8763 14.3333C25.2408 14.3333 26.4364 14.9127 27.3695 15.6712C28.3022 16.4294 29.0436 17.4203 29.5335 18.4072Z" fill="#101928"/>
</svg>
