<svg width="18" height="20" viewBox="0 0 18 20" fill="none" xmlns="http://www.w3.org/2000/svg">
<path fill-rule="evenodd" clip-rule="evenodd" d="M8.99948 5.00004C6.23806 5.00004 3.99948 7.23861 3.99948 10C3.99948 12.7615 6.23806 15 8.99948 15C11.7609 15 13.9995 12.7615 13.9995 10C13.9995 7.23861 11.7609 5.00004 8.99948 5.00004ZM5.66615 10C5.66615 8.15909 7.15854 6.6667 8.99948 6.6667C10.8404 6.6667 12.3328 8.15909 12.3328 10C12.3328 11.841 10.8404 13.3334 8.99948 13.3334C7.15854 13.3334 5.66615 11.841 5.66615 10Z" fill="#F0F2F5"/>
<path fill-rule="evenodd" clip-rule="evenodd" d="M11.0843 1.69079C9.92189 0.566247 8.07708 0.566247 6.91464 1.69079C6.61939 1.97641 6.20885 2.1098 5.8021 2.05227C4.20069 1.82576 2.7082 2.91012 2.42876 4.50315C2.35778 4.90777 2.10405 5.257 1.74117 5.44953C0.312458 6.20757 -0.257621 7.9621 0.452667 9.41514C0.633077 9.7842 0.633077 10.2159 0.452667 10.5849C-0.257622 12.038 0.312458 13.7925 1.74117 14.5505C2.10405 14.7431 2.35778 15.0923 2.42876 15.4969C2.7082 17.09 4.20069 18.1743 5.8021 17.9478C6.20885 17.8903 6.61939 18.0237 6.91464 18.3093C8.07708 19.4338 9.92189 19.4338 11.0843 18.3093C11.3796 18.0237 11.7901 17.8903 12.1969 17.9478C13.7983 18.1743 15.2908 17.09 15.5702 15.4969C15.6412 15.0923 15.8949 14.7431 16.2578 14.5505C17.6865 13.7925 18.2566 12.038 17.5463 10.5849C17.3659 10.2159 17.3659 9.7842 17.5463 9.41514C18.2566 7.9621 17.6865 6.20757 16.2578 5.44953C15.8949 5.257 15.6412 4.90777 15.5702 4.50315C15.2908 2.91012 13.7983 1.82576 12.1969 2.05227C11.7901 2.1098 11.3796 1.97641 11.0843 1.69079ZM8.07347 2.88866C8.58978 2.38918 9.40919 2.38918 9.9255 2.88866C10.5902 3.53172 11.5145 3.83204 12.4303 3.70251C13.1416 3.6019 13.8045 4.08354 13.9286 4.79111C14.0884 5.70208 14.6596 6.48833 15.4766 6.92181C16.1112 7.2585 16.3644 8.0378 16.049 8.68319C15.6428 9.51411 15.6428 10.486 16.049 11.3169C16.3644 11.9623 16.1112 12.7416 15.4766 13.0783C14.6596 13.5117 14.0884 14.298 13.9286 15.209C13.8045 15.9165 13.1416 16.3982 12.4303 16.2976C11.5145 16.168 10.5902 16.4683 9.9255 17.1114C9.40919 17.6109 8.58978 17.6109 8.07347 17.1114C7.40874 16.4683 6.48445 16.168 5.56869 16.2976C4.85739 16.3982 4.19448 15.9165 4.07036 15.209C3.91056 14.298 3.33932 13.5117 2.52232 13.0783C1.88773 12.7416 1.63452 11.9623 1.95001 11.3169C2.35618 10.486 2.35618 9.51411 1.95001 8.68319C1.63452 8.0378 1.88773 7.2585 2.52232 6.92181C3.33932 6.48833 3.91056 5.70208 4.07036 4.79111C4.19448 4.08354 4.85739 3.6019 5.56869 3.70251C6.48445 3.83204 7.40874 3.53172 8.07347 2.88866Z" fill="#F0F2F5"/>
</svg>
