<svg width="16" height="20" viewBox="0 0 16 20" fill="none" xmlns="http://www.w3.org/2000/svg">
<path d="M3.83333 10C3.83333 9.53977 4.20643 9.16668 4.66667 9.16668H11.3333C11.7936 9.16668 12.1667 9.53977 12.1667 10C12.1667 10.4602 11.7936 10.8333 11.3333 10.8333H4.66667C4.20643 10.8333 3.83333 10.4602 3.83333 10Z" fill="#F0F2F5"/>
<path d="M4.66667 13.3333C4.20643 13.3333 3.83333 13.7064 3.83333 14.1667C3.83333 14.6269 4.20643 15 4.66667 15H11.3333C11.7936 15 12.1667 14.6269 12.1667 14.1667C12.1667 13.7064 11.7936 13.3333 11.3333 13.3333H4.66667Z" fill="#F0F2F5"/>
<path fill-rule="evenodd" clip-rule="evenodd" d="M3.83333 0.833344C1.99238 0.833344 0.5 2.32573 0.5 4.16668V15.8333C0.5 17.6743 1.99238 19.1667 3.83333 19.1667H12.1667C14.0076 19.1667 15.5 17.6743 15.5 15.8333V7.5718C15.5 6.79201 15.2266 6.0369 14.7274 5.43785L11.8898 2.03273C11.2565 1.27275 10.3183 0.833344 9.32906 0.833344H3.83333ZM2.16667 4.16668C2.16667 3.2462 2.91286 2.50001 3.83333 2.50001H8.83333V5.00001C8.83333 6.84096 10.3257 8.33334 12.1667 8.33334H13.8333V15.8333C13.8333 16.7538 13.0871 17.5 12.1667 17.5H3.83333C2.91286 17.5 2.16667 16.7538 2.16667 15.8333V4.16668ZM13.5661 6.66668C13.5299 6.61062 13.4901 6.55656 13.447 6.50483L10.6094 3.0997C10.5747 3.05806 10.5382 3.01834 10.5 2.98063V5.00001C10.5 5.92048 11.2462 6.66668 12.1667 6.66668H13.5661Z" fill="#F0F2F5"/>
</svg>
