<svg width="18" height="18" viewBox="0 0 18 18" fill="none" xmlns="http://www.w3.org/2000/svg">
<path fill-rule="evenodd" clip-rule="evenodd" d="M8.99994 0.665039L3.79422 0.990397C2.55445 1.06788 1.46061 1.82832 0.95611 2.96344L0.501187 3.98702C0.0104889 5.09109 0.155636 6.37426 0.880558 7.34082L1.0958 7.62781L1.39233 14.1514C1.47325 15.9316 2.94013 17.3333 4.72222 17.3333H13.2777C15.0598 17.3333 16.5266 15.9316 16.6076 14.1514L16.8987 7.74712C17.6914 7.00601 17.9836 5.8499 17.603 4.80335L17.0093 3.17052C16.5562 1.92454 15.4078 1.06553 14.0846 0.982828L8.99994 0.665039ZM3.05727 14.0757L2.80492 8.52391C3.51875 8.60799 4.25553 8.44226 4.87886 8.02671L4.96541 7.96901C5.43604 7.65526 6.03869 7.61774 6.5446 7.87069L7.50923 8.353C8.44766 8.82222 9.55223 8.82222 10.4907 8.353L11.4553 7.87069C11.9612 7.61774 12.5638 7.65526 13.0345 7.96901L13.121 8.02671C13.7444 8.44226 14.4811 8.60799 15.195 8.52391L14.9426 14.0757C14.9022 14.9658 14.1687 15.6667 13.2777 15.6667H11.5723L11.7407 13.6453C11.8743 12.0419 10.609 10.6667 8.99994 10.6667C7.39092 10.6667 6.12554 12.0419 6.25917 13.6453L6.42761 15.6667H4.72222C3.83118 15.6667 3.09773 14.9658 3.05727 14.0757ZM14.0455 6.63996C14.5225 6.95797 15.144 6.95797 15.621 6.63996C16.0351 6.36392 16.2068 5.84059 16.0367 5.37292L15.443 3.7401C15.2164 3.11711 14.6422 2.6876 13.9806 2.64625L8.99994 2.33496L3.89819 2.65382C3.2783 2.69256 2.73138 3.07278 2.47913 3.64034L2.02421 4.66392C1.77886 5.21596 1.85143 5.85754 2.21389 6.34082L2.48746 6.70557C2.94743 6.95622 3.51278 6.93434 3.95436 6.63996L4.04091 6.58225C5.00918 5.93674 6.2491 5.85955 7.28996 6.37998L8.25459 6.86229C8.7238 7.0969 9.27609 7.0969 9.7453 6.86229L10.7099 6.37998C11.7508 5.85955 12.9907 5.93674 13.959 6.58225L14.0455 6.63996ZM10.0798 13.5069L9.89983 15.6667H8.10005L7.92008 13.5069C7.86743 12.8752 8.36599 12.3333 8.99994 12.3333C9.6339 12.3333 10.1325 12.8752 10.0798 13.5069Z" fill="#F0F2F5"/>
</svg>
