<svg width="14" height="12" viewBox="0 0 14 12" fill="none" xmlns="http://www.w3.org/2000/svg">
<path d="M0.333008 1.00002C0.333008 0.539783 0.706104 0.166687 1.16634 0.166687H12.833C13.2932 0.166687 13.6663 0.539783 13.6663 1.00002C13.6663 1.46026 13.2932 1.83335 12.833 1.83335H1.16634C0.706104 1.83335 0.333008 1.46026 0.333008 1.00002Z" fill="#2D3F50"/>
<path d="M1.99967 6.00002C1.99967 5.53978 2.37277 5.16669 2.83301 5.16669H11.1663C11.6266 5.16669 11.9997 5.53978 11.9997 6.00002C11.9997 6.46026 11.6266 6.83335 11.1663 6.83335H2.83301C2.37277 6.83335 1.99967 6.46026 1.99967 6.00002Z" fill="#2D3F50"/>
<path d="M4.49967 10.1667C4.03944 10.1667 3.66634 10.5398 3.66634 11C3.66634 11.4603 4.03944 11.8334 4.49967 11.8334H9.49967C9.95991 11.8334 10.333 11.4603 10.333 11C10.333 10.5398 9.95991 10.1667 9.49967 10.1667H4.49967Z" fill="#2D3F50"/>
</svg>
