<svg width="19" height="23" viewBox="0 0 19 23" fill="none" xmlns="http://www.w3.org/2000/svg">
<path fill-rule="evenodd" clip-rule="evenodd" d="M10.577 1.31253C10.577 0.718061 10.0951 0.236145 9.50064 0.236145C8.90616 0.236145 8.42425 0.718061 8.42425 1.31253V1.92701C4.773 2.44912 1.96591 5.5882 1.96591 9.38427L1.96591 13.6903C1.96591 13.6903 1.96592 13.6901 1.96591 13.6903C1.96581 13.6923 1.96508 13.7068 1.96041 13.735C1.95481 13.7689 1.94486 13.815 1.92844 13.8743C1.89515 13.9945 1.84217 14.1442 1.76815 14.3212C1.61975 14.6761 1.41055 15.0846 1.17917 15.4967C0.744152 16.2717 0.524875 17.1951 0.689496 18.0732C0.8631 18.9993 1.45919 19.8069 2.47726 20.1946C3.38671 20.5409 4.59729 20.8575 6.19597 21.046C6.23401 21.079 6.27899 21.1167 6.33066 21.158C6.49243 21.2875 6.72355 21.4552 7.01564 21.6221C7.59535 21.9534 8.45247 22.3021 9.50063 22.3021C10.5488 22.3021 11.4059 21.9534 11.9856 21.6221C12.2777 21.4552 12.5088 21.2875 12.6706 21.158C12.7223 21.1167 12.7673 21.079 12.8053 21.046C14.404 20.8575 15.6146 20.5409 16.524 20.1946C17.5421 19.8069 18.1382 18.9993 18.3118 18.0732C18.4764 17.1951 18.2571 16.2717 17.8221 15.4967C17.5907 15.0846 17.3815 14.6761 17.2331 14.3212C17.1591 14.1442 17.1061 13.9945 17.0728 13.8743C17.0564 13.815 17.0465 13.7689 17.0409 13.735C17.0362 13.7067 17.0355 13.6926 17.0354 13.6905C17.0354 13.6903 17.0354 13.6905 17.0354 13.6905L17.0354 13.6814V9.38479C17.0354 5.58881 14.2283 2.44921 10.577 1.92702V1.31253ZM4.11869 9.38427C4.11869 6.41216 6.52801 4.00351 9.50064 4.00351C12.4731 4.00351 14.8826 6.41256 14.8826 9.38479V13.691C14.8826 14.1893 15.0693 14.7268 15.247 15.1518C15.4401 15.6135 15.6932 16.1021 15.9449 16.5505C16.1896 16.9865 16.248 17.3985 16.1959 17.6766C16.1527 17.9068 16.0377 18.0762 15.758 18.1827C14.601 18.6232 12.6479 19.073 9.50064 19.073C6.35335 19.073 4.40028 18.6232 3.24331 18.1827C2.9636 18.0762 2.84856 17.9068 2.80542 17.6766C2.75329 17.3985 2.81165 16.9865 3.05639 16.5505C3.3081 16.1021 3.56115 15.6135 3.75425 15.1518C3.93199 14.7268 4.11869 14.1893 4.11869 13.691V9.38427Z" fill="#667185"/>
</svg>
