<svg width="23" height="22" viewBox="0 0 23 22" fill="none" xmlns="http://www.w3.org/2000/svg">
<path d="M5.04188 14.2292C4.44741 14.2292 3.96549 13.7473 3.96549 13.1528C3.96549 12.5583 4.44741 12.0764 5.04188 12.0764C5.63636 12.0764 6.11827 12.5583 6.11827 13.1528C6.11827 13.7473 5.63636 14.2292 5.04188 14.2292Z" fill="#667185"/>
<path d="M8.27105 13.1528C8.27105 13.7473 8.75297 14.2292 9.34744 14.2292C9.94191 14.2292 10.4238 13.7473 10.4238 13.1528C10.4238 12.5583 9.94191 12.0764 9.34744 12.0764C8.75297 12.0764 8.27105 12.5583 8.27105 13.1528Z" fill="#667185"/>
<path d="M13.653 14.2292C13.0585 14.2292 12.5766 13.7473 12.5766 13.1528C12.5766 12.5583 13.0585 12.0764 13.653 12.0764C14.2475 12.0764 14.7294 12.5583 14.7294 13.1528C14.7294 13.7473 14.2475 14.2292 13.653 14.2292Z" fill="#667185"/>
<path fill-rule="evenodd" clip-rule="evenodd" d="M20.6259 12.5587L17.9547 12.8926C17.9573 12.979 17.9586 13.0658 17.9586 13.1528C17.9586 17.9086 14.1032 21.7639 9.34744 21.7639C8.63602 21.7639 7.94335 21.6774 7.27998 21.5139L2.6527 20.9355C1.51463 20.7932 0.723706 19.7323 0.91226 18.601L1.1961 16.898L0.986384 15.2203C0.82283 14.5569 0.736328 13.8642 0.736328 13.1528C0.736328 8.39703 4.59165 4.5417 9.34744 4.5417C9.46977 4.5417 9.59149 4.54425 9.71258 4.5493C10.597 2.03742 12.9899 0.236145 15.8058 0.236145C19.3726 0.236145 22.2641 3.12764 22.2641 6.69448C22.2641 7.22131 22.2008 7.73477 22.0809 8.22709L21.9389 9.36327L22.1343 10.5355C22.2977 11.516 21.6122 12.4354 20.6259 12.5587ZM15.8058 2.38892C18.1837 2.38892 20.1113 4.31659 20.1113 6.69448C20.1113 7.0648 20.0648 7.42271 19.9779 7.76334L19.9612 7.8289L19.7954 9.15463C19.7745 9.32241 19.7779 9.49235 19.8057 9.65914L19.9416 10.4747L17.623 10.7645C16.8202 7.97755 14.6476 5.77094 11.8811 4.9205C12.5572 3.42718 14.0613 2.38892 15.8058 2.38892ZM9.34744 6.69448C5.7806 6.69448 2.88911 9.58597 2.88911 13.1528C2.88911 13.7075 2.95878 14.2443 3.08931 14.7557L3.10604 14.8213L3.33468 16.6504C3.35888 16.844 3.35488 17.0401 3.32281 17.2326L3.05879 18.8167L7.679 19.3942L7.74455 19.4109C8.25595 19.5415 8.79278 19.6111 9.34744 19.6111C12.9143 19.6111 15.8058 16.7197 15.8058 13.1528C15.8058 9.58597 12.9143 6.69448 9.34744 6.69448Z" fill="#667185"/>
</svg>
